<?xml version="1.0" encoding="UTF-8"?> <svg xmlns="http://www.w3.org/2000/svg" width="30" height="30" viewBox="0 0 30 30" fill="none"><path d="M21.5193 9.1808H19.0725L18.8808 8.67141C18.617 7.97097 17.9364 7.5 17.1876 7.5H12.812C12.0632 7.5 11.383 7.97097 11.1192 8.67141L10.9275 9.1808H8.48072C7.11276 9.1808 6 10.2936 6 11.6615V19.1692C6 20.5372 7.11276 21.6499 8.48072 21.6499H21.5193C22.8872 21.6499 24 20.5372 24 19.1692V11.6615C24 10.2936 22.8872 9.1808 21.5193 9.1808ZM22.6279 19.1692C22.6279 19.7805 22.1305 20.2779 21.5193 20.2779H8.48072C7.86946 20.2779 7.37208 19.7805 7.37208 19.1692V11.6615C7.37208 11.0503 7.86946 10.5529 8.48072 10.5529H11.8773L12.4035 9.15507C12.4673 8.98596 12.6316 8.87208 12.8124 8.87208H17.188C17.3687 8.87208 17.533 8.98562 17.5968 9.15507L18.123 10.5529H21.5196C22.1309 10.5529 22.6283 11.0503 22.6283 11.6615L22.6279 19.1692Z" fill="#535455"></path><path d="M15.0002 11.5566C12.9198 11.5566 11.2269 13.2494 11.2269 15.3298C11.2269 17.4102 12.9198 19.103 15.0002 19.103C17.0806 19.103 18.7734 17.4102 18.7734 15.3298C18.7734 13.2494 17.0806 11.5566 15.0002 11.5566ZM15.0002 17.7309C13.6761 17.7309 12.599 16.6538 12.599 15.3298C12.599 14.0057 13.6761 12.9286 15.0002 12.9286C16.3242 12.9286 17.4013 14.0057 17.4013 15.3298C17.4013 16.6538 16.3242 17.7309 15.0002 17.7309Z" fill="#535455"></path></svg> 